HIERARCHY
ROOT SpineBase
{
  OFFSET 0.000000 0.000000 0.000000
  CHANNELS 6 Xposition Yposition Zposition Zrotation Xrotation Yrotation
  JOINT SpineMid
  {
    OFFSET -0.000000 35.232086 0.000000
    CHANNELS 3 Zrotation Xrotation Yrotation
    JOINT SpineShoulder
    {
      OFFSET -0.311507 25.877824 -0.895811
      CHANNELS 3 Zrotation Xrotation Yrotation
      JOINT Neck
      {
        OFFSET -0.220161 8.474776 -0.663885
        CHANNELS 3 Zrotation Xrotation Yrotation
        JOINT Head
        {
          OFFSET -1.883450 12.675153 5.049051
          CHANNELS 3 Zrotation Xrotation Yrotation
          End Site
          {
            OFFSET 0 0 0
          }
        }
      }
      JOINT ShoulderLeft
      {
        OFFSET -9.118941 -6.003198 -7.255127
        CHANNELS 3 Zrotation Xrotation Yrotation
        JOINT ElbowLeft
        {
          OFFSET -2.586140 -29.203451 -9.205300
          CHANNELS 3 Zrotation Xrotation Yrotation
          JOINT WristLeft
          {
            OFFSET -5.301563 -28.817385 4.536114
            CHANNELS 3 Zrotation Xrotation Yrotation
            JOINT HandLeft
            {
              OFFSET -0.075812 -6.677746 2.469062
              CHANNELS 3 Zrotation Xrotation Yrotation
              JOINT HandTipLeft
              {
                OFFSET -2.253249 -8.353134 1.252940
                CHANNELS 3 Zrotation Xrotation Yrotation
                End Site
                {
                  OFFSET 0 0 0
                }
              }
              JOINT ThumbLeft
              {
                OFFSET -4.012636 0.298705 -0.204738
                CHANNELS 3 Zrotation Xrotation Yrotation
                End Site
                {
                  OFFSET 0 0 0
                }
              }
            }
          }
        }
      }
      JOINT ShoulderRight
      {
        OFFSET 0.413842 -6.991104 -11.551809
        CHANNELS 3 Zrotation Xrotation Yrotation
        JOINT ElbowRight
        {
          OFFSET -10.560379 -25.913195 -6.747276
          CHANNELS 3 Zrotation Xrotation Yrotation
          JOINT WristRight
          {
            OFFSET -5.420616 -24.083611 4.542220
            CHANNELS 3 Zrotation Xrotation Yrotation
            JOINT HandRight
            {
              OFFSET -1.690281 -9.618756 2.991504
              CHANNELS 3 Zrotation Xrotation Yrotation
              JOINT HandTipRight
              {
                OFFSET -3.726091 -8.028311 0.870216
                CHANNELS 3 Zrotation Xrotation Yrotation
                End Site
                {
                  OFFSET 0 0 0
                }
              }
              JOINT ThumbRight
              {
                OFFSET -2.616493 3.531481 -2.894094
                CHANNELS 3 Zrotation Xrotation Yrotation
                End Site
                {
                  OFFSET 0 0 0
                }
              }
            }
          }
        }
      }
    }
  }
  JOINT HipLeft
  {
    OFFSET -6.455367 1.263540 -0.260149
    CHANNELS 3 Zrotation Xrotation Yrotation
    JOINT KneeLeft
    {
      OFFSET 2.356801 -44.117932 -1.299388
      CHANNELS 3 Zrotation Xrotation Yrotation
      JOINT AnkleLeft
      {
        OFFSET 17.717084 -37.266282 15.294056
        CHANNELS 3 Zrotation Xrotation Yrotation
        JOINT FootLeft
        {
          OFFSET -12.423927 -5.342027 -8.503634
          CHANNELS 3 Zrotation Xrotation Yrotation
          End Site
          {
            OFFSET 0 0 0
          }
        }
      }
    }
  }
  JOINT HipRight
  {
    OFFSET 3.792974 0.442633 -7.817397
    CHANNELS 3 Zrotation Xrotation Yrotation
    JOINT KneeRight
    {
      OFFSET -0.103755 -45.575216 10.391181
      CHANNELS 3 Zrotation Xrotation Yrotation
      JOINT AnkleRight
      {
        OFFSET -6.629999 -37.699567 -6.085086
        CHANNELS 3 Zrotation Xrotation Yrotation
        JOINT FootRight
        {
          OFFSET -5.934459 -4.072177 -13.464815
          CHANNELS 3 Zrotation Xrotation Yrotation
          End Site
          {
            OFFSET 0 0 0
          }
        }
      }
    }
  }
}
MOTION
Frames: 12
Frame Time: 0.033333
87.683623 88.484246 265.543024 0.000000 0.000000 36.405503 -0.000000 0.000000 -36.405503 -0.000000 0.000000 0.000000 -0.000000 0.000000 0.000000 0.000000 0.000000 0.000000 -0.000000 0.000000 0.000000 -0.000000 0.000000 0.000000 -0.000000 0.000000 0.000000 -0.000000 0.000000 0.000000 0.000000 0.000000 0.000000 0.000000 0.000000 0.000000 -0.000000 0.000000 0.000000 -0.000000 0.000000 0.000000 -0.000000 0.000000 0.000000 -0.000000 0.000000 0.000000 0.000000 0.000000 0.000000 0.000000 0.000000 0.000000 -0.000000 0.000000 -36.405503 -0.000000 0.000000 0.000000 -0.000000 0.000000 0.000000 0.000000 0.000000 0.000000 -0.000000 0.000000 -36.405503 -0.000000 0.000000 0.000000 -0.000000 0.000000 0.000000 0.000000 0.000000 0.000000
87.684450 88.516100 265.513676 -0.017265 0.008185 36.422392 0.009033 -0.016837 -36.422390 -0.000000 0.000000 0.000000 -0.000000 0.000000 0.000000 0.000000 0.000000 0.000000 -0.000000 0.000000 0.000000 -0.000000 0.000000 0.000000 -0.000000 0.000000 0.000000 0.619275 1.436629 -0.303436 0.000000 0.000000 0.000000 0.000000 0.000000 0.000000 -0.000000 0.000000 0.000000 -0.000000 0.000000 0.000000 -0.000000 0.000000 0.000000 -0.000000 0.000000 0.000000 0.000000 0.000000 0.000000 0.000000 0.000000 0.000000 0.009033 -0.016837 -36.422390 -0.000000 0.000000 0.000000 0.953590 -1.602327 2.318277 0.000000 0.000000 0.000000 0.009033 -0.016837 -36.422390 -0.000000 0.000000 0.000000 -0.000000 0.000000 0.000000 0.000000 0.000000 0.000000
87.684284 88.541416 265.492224 -0.030506 0.016100 36.449444 0.014973 -0.031075 -36.449435 -0.000000 0.000000 0.000000 -0.000000 0.000000 0.000000 0.000000 0.000000 0.000000 -0.000000 0.000000 0.000000 -0.000000 0.000000 0.000000 -0.675317 -1.375714 -0.241100 1.802831 4.013810 -0.370459 0.000000 0.000000 0.000000 0.000000 0.000000 0.000000 -0.000000 0.000000 0.000000 -0.000000 0.000000 0.000000 -0.617205 -0.989566 -0.023304 0.616894 0.989760 0.012646 0.000000 0.000000 0.000000 0.000000 0.000000 0.000000 0.014973 -0.031075 -36.449435 -0.000000 0.000000 0.000000 1.678092 -2.803646 4.195986 0.000000 0.000000 0.000000 0.014973 -0.031075 -36.449435 -0.000000 0.000000 0.000000 -0.000000 0.000000 0.000000 0.000000 0.000000 0.000000
87.683124 88.560193 265.478668 -0.039713 0.023743 36.486665 0.017811 -0.042704 -36.486651 -0.000000 0.000000 0.000000 -0.000000 0.000000 0.000000 0.000000 0.000000 0.000000 -0.000000 0.000000 0.000000 0.931807 0.548859 0.041333 -1.938338 -2.715803 -0.422864 2.537825 5.762924 -0.520245 0.000000 0.000000 0.000000 0.000000 0.000000 0.000000 -0.000000 0.000000 0.000000 -0.000000 0.000000 0.000000 -0.871170 -1.387308 -0.037502 1.369815 2.113443 -0.282292 0.000000 0.000000 0.000000 0.000000 0.000000 0.000000 0.017811 -0.042704 -36.486651 -0.000000 0.000000 0.000000 2.097720 -3.567546 5.531262 0.000000 0.000000 0.000000 0.017811 -0.042704 -36.486651 -0.785118 0.533344 0.036514 0.784812 -0.533794 -0.029204 0.000000 0.000000 0.000000
87.680970 88.572431 265.473007 -0.044879 0.031111 36.534056 0.017540 -0.051714 -36.534035 -0.000000 0.000000 0.000000 -0.000000 0.000000 0.000000 0.000000 0.000000 0.000000 -0.000000 0.000000 0.000000 1.129639 0.712628 0.039802 -2.461264 -3.742552 -0.557083 3.159702 7.337218 -0.634828 0.000000 0.000000 0.000000 0.000000 0.000000 0.000000 -0.000000 0.000000 0.000000 -0.000000 0.000000 0.000000 -1.090146 -1.722777 -0.052350 1.910689 2.632314 -0.345838 0.000000 0.000000 0.000000 0.000000 0.000000 0.000000 0.017540 -0.051714 -36.534035 -0.000000 0.000000 0.000000 2.161328 -3.875987 6.255853 0.000000 0.000000 0.000000 0.017540 -0.051714 -36.534035 -0.922788 0.626113 0.043780 0.922364 -0.626737 -0.033693 0.000000 0.000000 0.000000
87.677823 88.578131 265.475241 -0.045997 0.038200 36.591605 0.014160 -0.058090 -36.591582 -0.000000 0.000000 0.000000 -0.000000 0.000000 0.000000 0.000000 0.000000 0.000000 -0.000000 0.000000 0.000000 1.271143 0.866719 0.031129 -2.923572 -4.831181 -0.688276 3.667414 8.736654 -0.706499 0.000000 0.000000 0.000000 0.000000 0.000000 0.000000 -0.000000 0.000000 0.000000 -0.000000 0.000000 0.000000 -1.274976 -1.997413 -0.067238 2.496298 3.061745 -0.394490 0.000000 0.000000 0.000000 0.000000 0.000000 0.000000 0.014160 -0.058090 -36.591582 -0.000000 0.000000 0.000000 1.848742 -3.723528 6.339833 0.000000 0.000000 0.000000 0.014160 -0.058090 -36.591582 -0.999665 0.677277 0.048039 0.999167 -0.678012 -0.036218 0.000000 0.000000 0.000000
87.675115 88.583337 265.482560 -0.046172 0.042660 36.692084 0.011534 -0.061796 -36.692061 -0.000000 0.000000 0.000000 -0.000000 0.000000 0.000000 0.000000 0.000000 0.000000 -0.000000 0.000000 0.000000 1.345482 1.040368 0.008211 -3.361531 -6.267790 -0.831695 4.369503 10.602302 -0.840444 0.000000 0.000000 0.000000 0.000000 0.000000 0.000000 -0.000000 0.000000 0.000000 -0.000000 0.000000 0.000000 -1.476375 -2.280759 -0.086998 3.410808 3.898826 -0.622424 0.000000 0.000000 0.000000 0.000000 0.000000 0.000000 0.011534 -0.061796 -36.692061 -0.000000 0.000000 0.000000 0.459124 -2.249764 4.699240 0.000000 0.000000 0.000000 0.011534 -0.061796 -36.692061 -0.925047 0.576331 0.052494 0.924565 -0.577103 -0.043185 0.000000 0.000000 0.000000
87.674332 88.580612 265.500073 -0.043757 0.045497 36.792165 0.007793 -0.062641 -36.792143 -0.000000 0.000000 0.000000 -0.000000 0.000000 0.000000 0.000000 0.000000 0.000000 -0.000000 0.000000 0.000000 1.305420 1.167610 -0.022707 -3.622639 -7.402216 -0.943014 4.242296 10.887543 -0.604866 0.000000 0.000000 0.000000 0.000000 0.000000 0.000000 -0.000000 0.000000 0.000000 -0.000000 0.000000 0.000000 -1.601117 -2.365243 -0.114334 4.053284 3.967776 -0.570370 0.000000 0.000000 0.000000 0.000000 0.000000 0.000000 0.007793 -0.062641 -36.792143 -0.000000 0.000000 0.000000 -1.166505 -1.257163 4.735917 0.000000 0.000000 0.000000 0.007793 -0.062641 -36.792143 -0.904698 0.569451 0.050269 0.904242 -0.570173 -0.041274 0.000000 0.000000 0.000000
87.668687 88.569348 265.523823 -0.031805 0.056516 36.846371 -0.008439 -0.064299 -36.846360 -0.000000 0.000000 0.000000 -0.000000 0.000000 0.000000 0.000000 0.000000 0.000000 -0.000000 0.000000 0.000000 1.279454 1.290197 -0.050563 -3.632607 -8.636494 -0.945713 3.937188 11.019278 -0.382605 0.000000 0.000000 0.000000 0.000000 0.000000 0.000000 -0.000000 0.000000 0.000000 -0.000000 0.000000 0.000000 -1.681281 -2.368481 -0.140157 4.463490 3.664252 -0.378179 0.000000 0.000000 0.000000 0.000000 0.000000 0.000000 -0.008439 -0.064299 -36.846360 -0.000000 0.000000 0.000000 -3.351215 1.143507 2.499811 0.000000 0.000000 0.000000 -0.008439 -0.064299 -36.846360 -1.148477 0.808346 0.051174 1.147869 -0.809210 -0.034966 0.000000 0.000000 0.000000
87.656578 88.552655 265.562285 -0.009392 0.067036 36.867411 -0.032706 -0.059266 -36.867422 -0.000000 0.000000 0.000000 0.612329 0.764244 -0.133977 0.000000 0.000000 0.000000 -0.000000 0.000000 0.000000 1.259303 1.387853 -0.072642 -3.879651 -9.854039 -1.058565 4.096070 11.849634 -0.289001 0.000000 0.000000 0.000000 0.000000 0.000000 0.000000 -0.000000 0.000000 0.000000 -0.000000 0.000000 0.000000 -1.707359 -2.626533 -0.107501 3.858710 3.368633 -0.195266 0.000000 0.000000 0.000000 0.000000 0.000000 0.000000 -0.032706 -0.059266 -36.867422 -0.000000 0.000000 0.000000 -3.157363 2.181841 0.011428 0.000000 0.000000 0.000000 -0.032706 -0.059266 -36.867422 -0.747959 0.570751 0.024033 0.747757 -0.571016 -0.016581 0.000000 0.000000 0.000000
87.633885 88.527293 265.598273 0.013543 0.094801 36.920375 -0.067774 -0.067655 -36.920426 -0.000000 0.000000 0.000000 0.747850 0.926357 -0.165603 0.000000 0.000000 0.000000 -0.000000 0.000000 0.000000 1.262389 1.439246 -0.082260 -3.861979 -10.856300 -1.050841 3.855770 13.533681 -0.555837 0.000000 0.000000 0.000000 0.000000 0.000000 0.000000 -0.000000 0.000000 0.000000 -0.000000 0.000000 0.000000 -1.718745 -2.754327 -0.090882 4.008780 2.589656 0.228883 0.000000 0.000000 0.000000 0.000000 0.000000 0.000000 -0.067774 -0.067655 -36.920426 -0.000000 0.000000 0.000000 -2.251796 1.591476 -0.079876 0.000000 0.000000 0.000000 -0.067774 -0.067655 -36.920426 -0.000000 0.000000 0.000000 -0.000000 0.000000 0.000000 0.000000 0.000000 0.000000
87.599935 88.511858 265.641243 0.037744 0.125635 36.944409 -0.105678 -0.077724 -36.944522 -0.000000 0.000000 0.000000 0.912615 1.041443 -0.216041 0.000000 0.000000 0.000000 -0.000000 0.000000 0.000000 1.429820 1.798141 -0.128808 -4.359331 -12.606837 -1.203859 5.131646 15.455556 -0.781744 0.000000 0.000000 0.000000 0.000000 0.000000 0.000000 -0.000000 0.000000 0.000000 -0.000000 0.000000 0.000000 -1.710242 -2.837610 -0.074779 3.969546 2.650320 0.215850 0.000000 0.000000 0.000000 0.000000 0.000000 0.000000 -0.105678 -0.077724 -36.944522 -0.000000 0.000000 0.000000 -0.403759 -0.216735 1.140069 0.000000 0.000000 0.000000 -0.105678 -0.077724 -36.944522 -0.000000 0.000000 0.000000 -0.000000 0.000000 0.000000 0.000000 0.000000 0.000000
